<svg width="344" height="107" viewBox="0 0 344 107" fill="none" xmlns="http://www.w3.org/2000/svg">
<path d="M1.209 62.4797H13.697C17.673 62.4797 21.145 63.3197 24.169 64.9437C27.137 66.6237 29.433 68.9197 31.057 71.8317C32.625 74.7997 33.465 78.2157 33.465 82.0797C33.465 85.9437 32.625 89.3597 31.057 92.3277C29.433 95.2957 27.137 97.5917 24.169 99.2157C21.145 100.896 17.673 101.68 13.697 101.68H1.209V62.4797ZM13.697 96.0797C17.897 96.0797 21.145 94.8477 23.441 92.3277C25.681 89.8077 26.857 86.3917 26.857 82.0797C26.857 77.8237 25.681 74.4077 23.441 71.8877C21.145 69.3677 17.897 68.0797 13.697 68.0797H7.649V96.0797H13.697ZM37.2756 62.4237H44.8356L55.1396 80.3997L65.7236 62.4237H72.9476L58.3316 87.1757V101.68H51.8916V87.1757L37.2756 62.4237ZM81.3174 101.68V62.4797H87.1974L106.293 90.2557V62.4797H112.621V101.68H106.741L87.6454 73.9037V101.68H81.3174ZM121.107 101.68L135.779 62.4797H143.451L158.067 101.68H151.179L147.483 91.9917H131.411L127.771 101.68H121.107ZM133.203 86.5037H145.691L139.419 69.4237L133.203 86.5037ZM166.566 62.4797H174.91L187.454 93.3357L199.774 62.4797H207.951V101.68H201.734V72.8397L189.974 101.68H184.542L172.782 72.8397V101.68H166.566V62.4797ZM219.609 62.4797H226.049V101.68H219.609V62.4797ZM238.49 71.6637C240.058 68.6397 242.242 66.3437 245.098 64.6637C247.954 62.9837 251.314 62.1437 255.122 62.1437C258.034 62.1437 260.722 62.7037 263.074 63.8237C265.426 64.9437 267.386 66.5677 268.898 68.6397C270.354 70.7117 271.306 73.1197 271.754 75.8077H265.314C264.642 73.3437 263.41 71.3837 261.618 69.9277C259.77 68.5277 257.53 67.7997 254.842 67.7997C252.378 67.7997 250.25 68.4157 248.458 69.6477C246.61 70.8797 245.21 72.5597 244.258 74.6877C243.25 76.8157 242.802 79.2797 242.802 82.0797C242.802 84.8797 243.25 87.3437 244.258 89.4717C245.21 91.6557 246.61 93.3357 248.458 94.5677C250.25 95.7997 252.378 96.3597 254.842 96.3597C257.53 96.3597 259.77 95.6877 261.562 94.2317C263.354 92.8317 264.586 90.8717 265.258 88.3517H271.698C271.25 91.1517 270.298 93.5597 268.842 95.5757C267.386 97.6477 265.482 99.2157 263.13 100.336C260.778 101.456 258.09 102.016 255.122 102.016C251.314 102.016 247.954 101.232 245.098 99.5517C242.242 97.9277 240.058 95.6317 238.49 92.6077C236.922 89.5837 236.194 86.1117 236.194 82.0797C236.194 78.1597 236.922 74.6877 238.49 71.6637ZM286.597 88.9117C286.765 91.2637 287.717 93.1117 289.397 94.5117C291.077 95.9117 293.317 96.5837 296.061 96.5837C298.413 96.5837 300.373 96.0797 301.829 95.0717C303.285 94.0637 304.069 92.6077 304.069 90.7597C304.069 89.4717 303.621 88.4637 302.837 87.6797C302.053 86.8957 300.933 86.3357 299.589 85.8877C298.189 85.4957 296.229 85.0477 293.765 84.5997C291.189 84.1517 289.005 83.5917 287.213 82.8637C285.421 82.1357 283.909 81.0157 282.789 79.5037C281.669 78.0477 281.109 76.0877 281.109 73.6237C281.109 71.3837 281.669 69.4237 282.845 67.6317C284.021 65.8957 285.645 64.5517 287.773 63.5437C289.901 62.5917 292.309 62.0877 295.053 62.0877C297.853 62.0877 300.317 62.6477 302.557 63.6557C304.741 64.7197 306.477 66.1757 307.765 67.9677C308.997 69.8157 309.725 71.8877 309.837 74.2397H303.509C303.285 72.2237 302.389 70.5997 300.877 69.3677C299.309 68.1357 297.405 67.5197 295.053 67.5197C292.757 67.5197 290.909 68.0237 289.565 69.0317C288.221 70.0397 287.549 71.3837 287.549 73.1757C287.549 74.4637 287.941 75.4717 288.725 76.1997C289.509 76.9837 290.629 77.5437 291.973 77.8797C293.317 78.2717 295.221 78.6637 297.741 79.1117C300.261 79.5597 302.445 80.1757 304.293 80.9037C306.085 81.6877 307.597 82.7517 308.773 84.2077C309.893 85.6637 310.509 87.6237 310.509 89.9757C310.509 92.3277 309.893 94.3997 308.661 96.1917C307.429 98.0397 305.693 99.4957 303.509 100.504C301.269 101.512 298.805 102.016 296.005 102.016C292.869 102.016 290.181 101.456 287.829 100.336C285.477 99.2157 283.629 97.7037 282.285 95.6877C280.941 93.6717 280.269 91.3757 280.269 88.7997L286.597 88.9117Z" fill="url(#paint0_linear_2118_127525)"/>
<g clip-path="url(#clip0_2118_127525)">
<path d="M122.825 47.4147C122.698 47.7853 122.49 48.1219 122.217 48.3996C121.99 48.596 121.698 48.698 121.4 48.685C121.112 48.685 120.833 48.5842 120.61 48.3996C120.316 48.1267 120.096 47.7823 119.97 47.3987L109.442 17.7969H102.25L114.078 49.8547C114.607 51.4554 115.615 52.8469 116.961 53.8343C118.235 54.7558 119.762 55.2453 121.325 55.2331C122.904 55.2516 124.449 54.7621 125.74 53.8343C127.076 52.8288 128.091 51.4445 128.658 49.8547L140.478 17.7969H133.429L122.825 47.4147Z" fill="white"/>
<path d="M268.221 17.7969H260.957L251.424 32.638H241.156V17.7969H234.625V54.377H241.171V38.3783H251.709L262.095 54.3729H269.507L257.044 34.9373L268.221 17.7969Z" fill="white"/>
<path d="M84.5997 18.4466C83.3233 17.5187 81.7924 17.0236 80.224 17.0316C78.6446 17.0156 77.1001 17.505 75.8087 18.4305C74.4724 19.4368 73.4561 20.8207 72.8863 22.4101L61.0703 54.484H68.1157L71.0657 46.2516H89.2004L92.1268 54.484H99.3183L87.4787 22.4262C86.9532 20.8249 85.946 19.4326 84.5997 18.4466ZM73.147 40.5152L78.7469 24.8662C78.8652 24.4929 79.0635 24.1511 79.3275 23.8653C79.5549 23.6688 79.8469 23.5668 80.145 23.5799C80.4327 23.5791 80.712 23.68 80.9347 23.8653C81.2294 24.1371 81.4497 24.4819 81.5745 24.8662L87.1429 40.5152H73.1272H73.147Z" fill="white"/>
<path d="M177.608 37.9481C179.435 36.107 180.348 33.5612 180.348 30.3105V28.1921C180.348 24.9414 179.435 22.3955 177.608 20.5545C175.781 18.7134 173.253 17.7942 170.025 17.7969H150.469V54.377H157.02V40.7096H167.442L175.297 54.377H182.797L174.401 40.0022C175.605 39.565 176.699 38.8636 177.608 37.9481ZM173.797 29.8804C173.797 31.4883 173.362 32.7706 172.482 33.6831C171.601 34.5956 170.381 35.0458 168.817 35.0458H157.02V23.4768H168.817C170.381 23.4768 171.602 23.9297 172.482 24.8355C173.362 25.744 173.797 27.0103 173.797 28.6383V29.8804Z" fill="white"/>
<path d="M208.144 33.8158C207.851 34.3424 207.513 35.2509 206.834 35.275H206.672C205.989 35.2509 205.652 34.3424 205.361 33.8158C203.362 30.0091 199.768 23.2036 196.842 17.6562H189.109L195.033 28.6182L198.655 35.279C199.345 36.485 200.032 38.0688 200.917 39.1341C201.585 39.9742 202.422 40.6595 203.369 41.1439V54.4093H210.104V41.1399C211.053 40.6557 211.89 39.9704 212.56 39.1299C213.445 38.0648 214.139 36.473 214.822 35.275L218.44 28.6142L224.407 17.6562H216.656L208.137 33.8158H208.144Z" fill="white"/>
<path d="M50.7432 17.8352H36.1037C35.864 17.8357 35.6327 17.9242 35.4519 18.0844L28.221 24.5523C28.1105 24.3151 27.996 24.078 27.8657 23.8488C26.7103 21.7536 25.0017 20.0297 22.9331 18.8723C20.7967 17.6543 18.202 17.0312 15.2164 17.0312H15.094C12.1084 17.0312 9.50979 17.6543 7.38118 18.8723C5.30741 20.0312 3.59652 21.7615 2.4447 23.8649C1.30742 25.9554 0.718496 28.309 0.734701 30.6986V54.5159H7.44832V30.6986C7.43654 29.6838 7.62494 28.6769 8.00237 27.7375C8.37982 26.7982 8.9386 25.9455 9.64563 25.2299C10.3527 24.5144 11.1936 23.9505 12.1186 23.5717C13.0436 23.1929 14.0339 23.007 15.0308 23.0248H15.2756C16.6023 23.0015 17.9109 23.34 19.0658 24.0052C20.2206 24.6703 21.1794 25.6378 21.8432 26.8074C22.5173 27.9884 22.8652 29.3328 22.8502 30.6986V54.5159H29.5638V32.2301L42.7146 20.4722C42.8919 20.314 43.1101 20.2111 43.3434 20.1758C43.5764 20.1404 43.8148 20.1742 44.0296 20.2729C44.2446 20.3717 44.4268 20.5313 44.5551 20.7327C44.6833 20.9341 44.7518 21.1688 44.7523 21.4088V54.4958H51.7266V18.8361C51.7256 18.571 51.6216 18.317 51.4374 18.1295C51.2533 17.9421 51.0039 17.8363 50.7432 17.8352Z" fill="white"/>
</g>
<defs>
<linearGradient id="paint0_linear_2118_127525" x1="155.125" y1="45.6797" x2="155.125" y2="112.68" gradientUnits="userSpaceOnUse">
<stop stop-color="#10DEEB"/>
<stop offset="1" stop-color="#05A9B4"/>
</linearGradient>
<clipPath id="clip0_2118_127525">
<rect width="270.15" height="70.6479" fill="white" transform="translate(0.734375 0.804688)"/>
</clipPath>
</defs>
</svg>
