<svg width="709" height="231" viewBox="0 0 709 231" fill="none" xmlns="http://www.w3.org/2000/svg">
<path d="M1.192 139.9H29.736C38.824 139.9 46.76 141.82 53.672 145.532C60.456 149.372 65.704 154.62 69.416 161.276C73 168.06 74.92 175.868 74.92 184.7C74.92 193.532 73 201.34 69.416 208.124C65.704 214.908 60.456 220.156 53.672 223.868C46.76 227.708 38.824 229.5 29.736 229.5H1.192V139.9ZM29.736 216.7C39.336 216.7 46.76 213.884 52.008 208.124C57.128 202.364 59.816 194.556 59.816 184.7C59.816 174.972 57.128 167.164 52.008 161.404C46.76 155.644 39.336 152.7 29.736 152.7H15.912V216.7H29.736ZM83.63 139.772H100.91L124.462 180.86L148.654 139.772H165.166L131.758 196.348V229.5H117.038V196.348L83.63 139.772ZM184.297 229.5V139.9H197.737L241.385 203.388V139.9H255.849V229.5H242.409L198.761 166.012V229.5H184.297ZM275.244 229.5L308.78 139.9H326.316L359.724 229.5H343.98L335.532 207.356H298.796L290.476 229.5H275.244ZM302.892 194.812H331.436L317.1 155.772L302.892 194.812ZM379.152 139.9H398.224L426.896 210.428L455.056 139.9H473.744V229.5H459.536V163.58L432.656 229.5H420.24L393.36 163.58V229.5H379.152V139.9ZM500.392 139.9H515.112V229.5H500.392V139.9ZM543.549 160.892C547.133 153.98 552.125 148.732 558.653 144.892C565.181 141.052 572.861 139.132 581.565 139.132C588.221 139.132 594.365 140.412 599.741 142.972C605.117 145.532 609.597 149.244 613.053 153.98C616.381 158.716 618.557 164.22 619.581 170.364H604.861C603.325 164.732 600.509 160.252 596.413 156.924C592.189 153.724 587.069 152.06 580.925 152.06C575.293 152.06 570.429 153.468 566.333 156.284C562.109 159.1 558.909 162.94 556.733 167.804C554.429 172.668 553.405 178.3 553.405 184.7C553.405 191.1 554.429 196.732 556.733 201.596C558.909 206.588 562.109 210.428 566.333 213.244C570.429 216.06 575.293 217.34 580.925 217.34C587.069 217.34 592.189 215.804 596.285 212.476C600.381 209.276 603.197 204.796 604.733 199.036H619.453C618.429 205.436 616.253 210.94 612.925 215.548C609.597 220.284 605.245 223.868 599.869 226.428C594.493 228.988 588.349 230.268 581.565 230.268C572.861 230.268 565.181 228.476 558.653 224.636C552.125 220.924 547.133 215.676 543.549 208.764C539.965 201.852 538.301 193.916 538.301 184.7C538.301 175.74 539.965 167.804 543.549 160.892ZM653.508 200.316C653.892 205.692 656.068 209.916 659.908 213.116C663.748 216.316 668.868 217.852 675.14 217.852C680.516 217.852 684.996 216.7 688.324 214.396C691.652 212.092 693.444 208.764 693.444 204.54C693.444 201.596 692.42 199.292 690.628 197.5C688.836 195.708 686.276 194.428 683.204 193.404C680.004 192.508 675.524 191.484 669.892 190.46C664.004 189.436 659.012 188.156 654.916 186.492C650.82 184.828 647.364 182.268 644.804 178.812C642.244 175.484 640.964 171.004 640.964 165.372C640.964 160.252 642.244 155.772 644.932 151.676C647.62 147.708 651.332 144.636 656.196 142.332C661.06 140.156 666.564 139.004 672.836 139.004C679.236 139.004 684.868 140.284 689.988 142.588C694.98 145.02 698.948 148.348 701.892 152.444C704.708 156.668 706.372 161.404 706.628 166.78H692.164C691.652 162.172 689.604 158.46 686.148 155.644C682.564 152.828 678.212 151.42 672.836 151.42C667.588 151.42 663.364 152.572 660.292 154.876C657.22 157.18 655.684 160.252 655.684 164.348C655.684 167.292 656.58 169.596 658.372 171.26C660.164 173.052 662.724 174.332 665.796 175.1C668.868 175.996 673.22 176.892 678.98 177.916C684.74 178.94 689.732 180.348 693.956 182.012C698.052 183.804 701.508 186.236 704.196 189.564C706.756 192.892 708.164 197.372 708.164 202.748C708.164 208.124 706.756 212.86 703.94 216.956C701.124 221.18 697.156 224.508 692.164 226.812C687.044 229.116 681.412 230.268 675.012 230.268C667.844 230.268 661.7 228.988 656.324 226.428C650.948 223.868 646.724 220.412 643.652 215.804C640.58 211.196 639.044 205.948 639.044 200.06L653.508 200.316Z" fill="url(#paint0_linear_1968_34332)"/>
<path d="M274.783 105.392C274.496 106.226 274.029 106.984 273.414 107.609C272.903 108.051 272.245 108.28 271.575 108.251C270.927 108.251 270.299 108.024 269.797 107.609C269.137 106.995 268.641 106.219 268.357 105.356L244.662 38.7344H228.477L255.096 110.884C256.286 114.486 258.555 117.618 261.584 119.84C264.452 121.914 267.888 123.016 271.406 122.988C274.961 123.03 278.438 121.928 281.343 119.84C284.35 117.577 286.634 114.462 287.911 110.884L314.513 38.7344H298.647L274.783 105.392Z" fill="white"/>
<path d="M602.001 38.7344H585.654L564.198 72.1357H541.09V38.7344H526.391V121.061H541.124V85.0548H564.84L588.214 121.052H604.895L576.846 77.3105L602.001 38.7344Z" fill="white"/>
<path d="M188.736 40.2088C185.864 38.1205 182.418 37.0063 178.888 37.0243C175.334 36.9883 171.858 38.0896 168.952 40.1726C165.944 42.4373 163.657 45.5519 162.374 49.1291L135.781 121.314H151.638L158.277 102.787H199.091L205.677 121.314H221.862L195.216 49.1653C194.033 45.5614 191.766 42.4278 188.736 40.2088ZM162.961 89.8763L175.564 54.6568C175.83 53.8167 176.277 53.0473 176.871 52.4041C177.383 51.9618 178.04 51.7324 178.711 51.7618C179.358 51.7601 179.987 51.9871 180.488 52.4041C181.151 53.0158 181.647 53.7919 181.928 54.6568L194.46 89.8763H162.916H162.961Z" fill="white"/>
<path d="M398.071 84.0866C402.183 79.9432 404.239 74.2135 404.239 66.8975V62.1298C404.239 54.8138 402.183 49.0841 398.071 44.9406C393.959 40.7971 388.27 38.7284 381.006 38.7344H336.992V121.061H351.737V90.3018H375.193L392.871 121.061H409.75L390.854 88.7097C393.563 87.7256 396.027 86.1472 398.071 84.0866ZM389.494 65.9295C389.494 69.5483 388.516 72.4343 386.534 74.4879C384.552 76.5416 381.806 77.5548 378.286 77.5548H351.737V51.5177H378.286C381.806 51.5177 384.555 52.537 386.534 54.5756C388.516 56.6202 389.494 59.47 389.494 63.134V65.9295Z" fill="white"/>
<path d="M466.801 74.8062C466.142 75.9914 465.379 78.036 463.851 78.0902H463.487C461.95 78.036 461.192 75.9914 460.537 74.8062C456.037 66.2387 447.949 50.9223 441.363 38.4375H423.961L437.292 63.1085L445.444 78.0993C446.998 80.8134 448.544 84.3781 450.535 86.7755C452.038 88.6663 453.922 90.2086 456.054 91.2989V121.154H471.211V91.2898C473.348 90.2 475.232 88.6577 476.739 86.7661C478.73 84.369 480.293 80.7864 481.83 78.0902L489.973 63.0995L503.401 38.4375H485.957L466.784 74.8062H466.801Z" fill="white"/>
<path d="M112.558 38.8328H79.61C79.0705 38.834 78.5499 39.0332 78.1431 39.3937L61.8692 53.9503C61.6205 53.4165 61.3627 52.8827 61.0694 52.3671C58.4692 47.6516 54.6238 43.7718 49.9683 41.1669C45.16 38.4257 39.3203 37.0234 32.601 37.0234H32.3255C25.6061 37.0234 19.7578 38.4257 14.9671 41.1669C10.2999 43.7751 6.44936 47.6694 3.85707 52.4032C1.29752 57.1082 -0.0279249 62.405 0.00854527 67.7831V121.386H15.1182V67.7831C15.0917 65.4991 15.5157 63.233 16.3652 61.1189C17.2146 59.0048 18.4722 57.0858 20.0635 55.4753C21.6548 53.8649 23.5473 52.5959 25.6292 51.7434C27.711 50.8909 29.9397 50.4723 32.1833 50.5124H32.7343C35.7202 50.4601 38.6653 51.222 41.2644 52.7189C43.8635 54.2159 46.0214 56.3934 47.5153 59.0256C49.0323 61.6835 49.8154 64.7093 49.7816 67.7831V121.386H64.8913V71.2299L94.4885 44.7676C94.8875 44.4116 95.3786 44.18 95.9035 44.1005C96.4281 44.021 96.9646 44.0969 97.448 44.3191C97.9318 44.5414 98.342 44.9006 98.6306 45.354C98.9191 45.8072 99.0733 46.3355 99.0746 46.8756V121.341H114.771V41.0855C114.769 40.4888 114.534 39.9172 114.12 39.4953C113.706 39.0733 113.144 38.8352 112.558 38.8328Z" fill="white"/>
<defs>
<linearGradient id="paint0_linear_1968_34332" x1="353" y1="101.5" x2="353" y2="255.5" gradientUnits="userSpaceOnUse">
<stop stop-color="#10DEEB"/>
<stop offset="1" stop-color="#05A9B4"/>
</linearGradient>
</defs>
</svg>
