<svg width="120" height="38" viewBox="0 0 120 38" fill="none" xmlns="http://www.w3.org/2000/svg">
<g clip-path="url(#clip0_1968_34372)">
<g clip-path="url(#clip1_1968_34372)">
<g clip-path="url(#clip2_1968_34372)">
<path d="M54.1952 13.3643C54.1386 13.5282 54.0464 13.6771 53.9252 13.7998C53.8243 13.8867 53.6947 13.9318 53.5624 13.9261C53.4347 13.9261 53.3109 13.8815 53.2118 13.7998C53.0816 13.6792 52.9838 13.5268 52.9278 13.3572L48.2546 0.265625H45.0625L50.3125 14.4434C50.5472 15.1513 50.9947 15.7667 51.5921 16.2034C52.1576 16.6109 52.8354 16.8274 53.5291 16.822C54.2303 16.8302 54.9161 16.6137 55.4889 16.2034C56.0819 15.7587 56.5325 15.1465 56.7842 14.4434L62.0308 0.265625H58.9018L54.1952 13.3643Z" fill="white"/>
<path d="M118.725 0.265625H115.5L111.269 6.82918H106.711V0.265625H103.812V16.4434H106.718V9.36787H111.396L116.005 16.4416H119.295L113.763 7.84607L118.725 0.265625Z" fill="white"/>
<path d="M37.2252 0.555633C36.6586 0.145266 35.9791 -0.073689 35.2829 -0.0701447C34.5819 -0.0772122 33.8964 0.139192 33.3232 0.548522C32.73 0.993552 32.2789 1.60558 32.026 2.30852L26.7812 16.4934H29.9085L31.2179 12.8526H39.2673L40.5662 16.4934H43.7583L38.5031 2.31563C38.2698 1.60745 37.8228 0.991678 37.2252 0.555633ZM32.1417 10.3156L34.6273 3.39475C34.6798 3.22966 34.7678 3.07847 34.885 2.95208C34.986 2.86517 35.1156 2.82009 35.2479 2.82585C35.3756 2.82553 35.4995 2.87014 35.5984 2.95208C35.7292 3.07229 35.827 3.22479 35.8824 3.39475L38.354 10.3156H32.1329H32.1417Z" fill="white"/>
<path d="M78.507 9.17761C79.318 8.36341 79.7235 7.23748 79.7235 5.79985V4.86297C79.7235 3.42533 79.318 2.29941 78.507 1.48518C77.696 0.670961 76.5741 0.264443 75.1414 0.265628H66.4609V16.4434H69.369V10.3989H73.995L77.4815 16.4434H80.8103L77.0836 10.0861C77.618 9.89269 78.1039 9.58252 78.507 9.17761ZM76.8154 5.60963C76.8154 6.32074 76.6226 6.88785 76.2318 7.2914C75.8409 7.69496 75.2991 7.89407 74.605 7.89407H69.369V2.77763H74.605C75.2991 2.77763 75.8414 2.97792 76.2318 3.37852C76.6226 3.7803 76.8154 4.3403 76.8154 5.0603V5.60963Z" fill="white"/>
<path d="M92.0662 7.34979C91.9361 7.58268 91.7858 7.98446 91.4844 7.99512H91.4126C91.1094 7.98446 90.96 7.58268 90.8308 7.34979C89.9433 5.66623 88.3481 2.65645 87.0493 0.203125H83.6172L86.2463 5.05112L87.8541 7.99691C88.1606 8.53025 88.4655 9.23072 88.8581 9.70183C89.1545 10.0734 89.5261 10.3765 89.9466 10.5907V16.4574H92.936V10.5889C93.3573 10.3748 93.7289 10.0717 94.0261 9.69998C94.4188 9.22894 94.727 8.52493 95.0302 7.99512L96.6363 5.04935L99.2845 0.203125H95.8442L92.0628 7.34979H92.0662Z" fill="white"/>
<path d="M22.1973 0.285243H15.6993C15.5929 0.285475 15.4902 0.324611 15.41 0.395465L12.2004 3.25591C12.1514 3.15102 12.1006 3.04613 12.0427 2.9448C11.5299 2.01819 10.7715 1.25578 9.85332 0.74391C8.905 0.205243 7.7533 -0.0703125 6.4281 -0.0703125H6.37376C5.04855 -0.0703125 3.89513 0.205243 2.9503 0.74391C2.02982 1.25643 1.27042 2.02169 0.759158 2.95191C0.254359 3.87646 -0.00704821 4.91732 0.000144519 5.97414V16.5075H2.9801V5.97414C2.97488 5.52533 3.0585 5.08003 3.22603 4.6646C3.39357 4.24916 3.64159 3.87205 3.95542 3.55559C4.26926 3.23913 4.64251 2.98976 5.0531 2.82224C5.46367 2.65473 5.90322 2.57248 6.34571 2.58036H6.45439C7.04327 2.57008 7.62412 2.71978 8.13671 3.01394C8.64931 3.3081 9.07491 3.736 9.36953 4.25324C9.66872 4.77553 9.82317 5.37013 9.8165 5.97414V16.5075H12.7965V6.65147L18.6337 1.45147C18.7124 1.38151 18.8092 1.336 18.9128 1.32037C19.0162 1.30475 19.122 1.31966 19.2174 1.36333C19.3128 1.40701 19.3937 1.4776 19.4506 1.56669C19.5075 1.65576 19.5379 1.75956 19.5382 1.86569V16.4986H22.6338V0.72791C22.6334 0.610652 22.5872 0.498329 22.5055 0.415414C22.4237 0.332499 22.313 0.285711 22.1973 0.285243Z" fill="white"/>
</g>
</g>
</g>
<path d="M82.2228 22.7433H76.4138C76.3187 22.7435 76.2269 22.7789 76.1551 22.843L73.2859 25.4292C73.242 25.3343 73.1966 25.2395 73.1449 25.1479C72.6864 24.3101 72.0084 23.6208 71.1876 23.158C70.3398 22.671 69.3102 22.4219 68.1255 22.4219H68.0769C66.8922 22.4219 65.8611 22.671 65.0164 23.158C64.1936 23.6214 63.5147 24.3133 63.0576 25.1543C62.6063 25.9902 62.3727 26.9313 62.3791 27.8867V37.4101H65.0431V27.8867C65.0384 27.481 65.1132 27.0784 65.2629 26.7028C65.4127 26.3272 65.6345 25.9862 65.915 25.7001C66.1956 25.414 66.5292 25.1885 66.8963 25.0371C67.2634 24.8856 67.6563 24.8113 68.0519 24.8184H68.149C68.6755 24.8091 69.1947 24.9444 69.653 25.2104C70.1112 25.4763 70.4917 25.8632 70.7551 26.3309C71.0226 26.8031 71.1606 27.3407 71.1547 27.8867V37.4101H73.8187V28.4991L79.037 23.7977C79.1074 23.7345 79.194 23.6933 79.2865 23.6792C79.379 23.6651 79.4736 23.6786 79.5588 23.7181C79.6441 23.7575 79.7164 23.8214 79.7673 23.9019C79.8182 23.9824 79.8454 24.0763 79.8456 24.1722V37.4021H82.613V23.1436C82.6127 23.0375 82.5714 22.936 82.4983 22.861C82.4252 22.7861 82.3263 22.7438 82.2228 22.7433Z" fill="white"/>
<path d="M54.5101 23.5487C54.1354 23.1691 53.4187 22.7904 52.6366 22.7945C51.8044 22.7988 51.1378 23.1691 50.7631 23.5438C50.3884 23.9185 50.3884 23.9184 50.0137 24.6679L45.1425 37.4103H47.9034L49.0594 34.1158H56.1658L57.3126 37.4103H60.1307L55.3595 25.157C55.1536 24.5161 54.9729 24.0176 54.5101 23.5487ZM49.875 31.8201L52.0694 25.5575C52.1158 25.4081 52.1935 25.2713 52.297 25.157C52.386 25.0783 52.5005 25.0375 52.6173 25.0428C52.73 25.0425 52.8395 25.0828 52.9268 25.157C53.0423 25.2657 53.1286 25.4037 53.1775 25.5575L55.3595 31.8201H49.8672H49.875Z" fill="white"/>
<path d="M21.1654 29.5137C21.05 29.7204 20.9166 30.0769 20.649 30.0864H20.5853C20.3163 30.0769 20.1837 29.7204 20.069 29.5137C19.2814 28.0196 17.8657 25.3485 16.7131 23.1713H13.6672L16.0005 27.4737L17.4273 30.088C17.6994 30.5613 17.9699 31.1829 18.3184 31.601C18.5814 31.9308 18.9112 32.1997 19.2844 32.3898V37.4101H21.9373V32.3883C22.3112 32.1982 22.641 31.9293 22.9048 31.5994C23.2533 31.1813 23.5268 30.5566 23.7958 30.0864L27.5714 23.1713H24.5183L21.1624 29.5137H21.1654Z" fill="white"/>
<path d="M0 22.9543H4.60261C6.06802 22.9543 7.34767 23.2639 8.4622 23.8625C9.5561 24.4817 10.4023 25.3279 11.0009 26.4011C11.5788 27.495 11.8884 28.754 11.8884 30.1782C11.8884 31.6023 11.5788 32.8613 11.0009 33.9552C10.4023 35.0491 9.5561 35.8953 8.4622 36.4939C7.34767 37.1131 6.06802 37.402 4.60261 37.402H0V22.9543ZM4.60261 35.3381C6.15058 35.3381 7.34767 34.884 8.19389 33.9552C9.01947 33.0264 9.4529 31.7674 9.4529 30.1782C9.4529 28.6096 9.01947 27.3505 8.19389 26.4218C7.34767 25.493 6.15058 25.0183 4.60261 25.0183H3.49766C2.87683 25.0183 2.37354 25.5216 2.37354 26.1424V34.2139C2.37354 34.8348 2.87683 35.3381 3.49766 35.3381H4.60261Z" fill="white"/>
<path d="M30.7634 37.402V23.1717H32.9305L39.2873 32.2215C39.4977 32.5211 39.9686 32.3722 39.9686 32.0062V23.1717H42.3008V37.402H40.1337L33.7791 28.1589C33.5706 27.8557 33.0956 28.0032 33.0956 28.3712V37.402H30.7634Z" fill="white"/>
<path d="M86.2355 23.4878C86.2355 23.0739 86.571 22.7384 86.9849 22.7384H87.8597C88.2735 22.7384 88.6091 23.0739 88.6091 23.4878V37.4122H86.2355V23.4878Z" fill="white"/>
<path d="M93.03 26.4424C93.6079 25.3279 94.4129 24.4817 95.4655 23.8625C96.5181 23.2433 97.7565 22.9337 99.1599 22.9337C100.233 22.9337 101.224 23.1401 102.091 23.5529C102.958 23.9657 103.68 24.5642 104.237 25.3279C104.774 26.0915 105.125 26.979 105.29 27.9697H103.489C103.151 27.9697 102.861 27.7407 102.735 27.4271C102.471 26.7691 102.077 26.2276 101.554 25.8026C100.873 25.2866 100.047 25.0183 99.0567 25.0183C98.1486 25.0183 97.3643 25.2453 96.7038 25.6994C96.0227 26.1534 95.5067 26.7726 95.1559 27.5569C94.7844 28.3412 94.6192 29.2494 94.6192 30.2814C94.6192 31.3133 94.7844 32.2215 95.1559 33.0058C95.5067 33.8107 96.0227 34.4299 96.7038 34.884C97.3643 35.3381 98.1486 35.5445 99.0567 35.5445C100.047 35.5445 100.873 35.2968 101.533 34.7602C102.058 34.3503 102.452 33.8102 102.717 33.1399C102.841 32.8241 103.132 32.593 103.471 32.593H105.269C105.104 33.625 104.753 34.5125 104.217 35.2555C103.68 36.0192 102.978 36.5971 102.111 37.0099C101.245 37.4227 100.254 37.629 99.1599 37.629C97.7565 37.629 96.5181 37.3401 95.4655 36.7209C94.4129 36.1224 93.6079 35.2761 93.03 34.1616C92.4521 33.047 92.1838 31.7674 92.1838 30.2814C92.1838 28.8366 92.4521 27.5569 93.03 26.4424Z" fill="white"/>
<path d="M111.098 32.82C111.16 33.6869 111.511 34.368 112.13 34.884C112.749 35.4 113.575 35.6477 114.586 35.6477C115.453 35.6477 116.175 35.4619 116.712 35.0904C117.249 34.7189 117.538 34.1822 117.538 33.5011C117.538 33.0264 117.372 32.6549 117.083 32.3659C116.795 32.077 116.382 31.8706 115.886 31.7055C115.37 31.561 114.648 31.3959 113.74 31.2308C112.79 31.0657 111.986 30.8593 111.325 30.5909C110.665 30.3226 110.107 29.9098 109.695 29.3526C109.282 28.8159 109.075 28.0936 109.075 27.1854C109.075 26.3598 109.282 25.6375 109.715 24.977C110.149 24.3372 110.747 23.8418 111.531 23.4703C112.316 23.1194 113.203 22.9337 114.215 22.9337C115.247 22.9337 116.155 23.1401 116.98 23.5116C117.785 23.9037 118.425 24.4404 118.9 25.1008C119.354 25.7819 119.622 26.5456 119.663 27.4125H117.331C117.249 26.6694 116.918 26.0709 116.361 25.6168C115.783 25.1628 115.081 24.9357 114.215 24.9357C113.368 24.9357 112.687 25.1215 112.192 25.493C111.697 25.8645 111.449 26.3598 111.449 27.0203C111.449 27.495 111.593 27.8665 111.882 28.1348C112.171 28.4238 112.584 28.6302 113.079 28.754C113.575 28.8985 114.277 29.043 115.205 29.2081C116.134 29.3732 116.939 29.6002 117.62 29.8686C118.281 30.1575 118.838 30.5497 119.271 31.0863C119.684 31.6229 119.911 32.3453 119.911 33.2122C119.911 34.079 119.684 34.8427 119.23 35.5032C118.776 36.1843 118.136 36.7209 117.331 37.0924C116.506 37.4639 115.597 37.6497 114.565 37.6497C113.41 37.6497 112.419 37.4433 111.552 37.0305C110.685 36.6177 110.004 36.0604 109.509 35.3174C109.013 34.5744 108.766 33.7282 108.766 32.7787L111.098 32.82Z" fill="white"/>
<defs>
<clipPath id="clip0_1968_34372">
<rect width="120" height="17" fill="white"/>
</clipPath>
<clipPath id="clip1_1968_34372">
<rect width="119.911" height="31.2444" fill="white" transform="translate(0 -7.25)"/>
</clipPath>
<clipPath id="clip2_1968_34372">
<rect width="119.911" height="31.2444" fill="white" transform="translate(0 -7.25)"/>
</clipPath>
</defs>
</svg>
