<svg xmlns="http://www.w3.org/2000/svg" style="display:none;">

    <!-- Logo stuff -->
    <symbol id="mav-logo-large" width="37" height="38" viewBox="0 0 37 38" fill="none"
        xmlns="http://www.w3.org/2000/svg">
        <g id="logo" clip-path="url(#clip0_1968_34370)">
            <path id="Vector" d="M18.4984 0.5C8.28278 0.5 0 8.78278 0 18.9984C0 29.2141 8.28278 37.4969 18.4984 37.4969C28.7141 37.4969 36.9969 29.2141 36.9969 18.9984C36.9969 8.78278 28.7171 0.5 18.4984 0.5ZM26.686 25.025H24.4554V14.6289C24.4554 14.2898 24.0562 14.1124 23.8027 14.3342L19.6011 18.0288V25.0189H17.4496V17.4775C17.4496 17.0275 17.3419 16.6156 17.1264 16.2512C16.9109 15.8837 16.6194 15.5922 16.255 15.3799C15.8938 15.1676 15.4787 15.0598 15.0256 15.0598H14.9464C14.4933 15.0598 14.0782 15.1676 13.717 15.3799C13.3526 15.5922 13.0611 15.8837 12.8456 16.2512C12.6333 16.6156 12.5224 17.0275 12.5224 17.4775V25.0189H10.3709V17.4775C10.3709 16.6948 10.5547 15.9724 10.9159 15.3197C11.2803 14.6669 11.8095 14.1409 12.4939 13.7575C13.1751 13.3741 14.0053 13.1777 14.9622 13.1777H15.0034C15.9572 13.1777 16.7905 13.3709 17.4718 13.7575C18.1562 14.1441 18.6885 14.6701 19.0498 15.3197C19.1004 15.4084 19.1448 15.5003 19.1892 15.5922L21.4769 13.5832C21.534 13.5326 21.6068 13.504 21.6861 13.504H26.3693C26.5436 13.504 26.683 13.6434 26.683 13.8177V25.022L26.686 25.025Z" fill="white"/>
        </g>
        <defs>
            <clipPath id="clip0_1968_34370">
                <rect width="37" height="37" fill="white" transform="translate(0 0.5)"/>
            </clipPath>
        </defs>
    </symbol>

    <symbol id="mav-logo-text-large" width="120" height="38" viewBox="0 0 120 38" fill="none"
        xmlns="http://www.w3.org/2000/svg">
        <g clip-path="url(#clip0_1968_34372)">
            <g clip-path="url(#clip1_1968_34372)">
                <g clip-path="url(#clip2_1968_34372)">
                    <path d="M54.1952 13.3643C54.1386 13.5282 54.0464 13.6771 53.9252 13.7998C53.8243 13.8867 53.6947 13.9318 53.5624 13.9261C53.4347 13.9261 53.3109 13.8815 53.2118 13.7998C53.0816 13.6792 52.9838 13.5268 52.9278 13.3572L48.2546 0.265625H45.0625L50.3125 14.4434C50.5472 15.1513 50.9947 15.7667 51.5921 16.2034C52.1576 16.6109 52.8354 16.8274 53.5291 16.822C54.2303 16.8302 54.9161 16.6137 55.4889 16.2034C56.0819 15.7587 56.5325 15.1465 56.7842 14.4434L62.0308 0.265625H58.9018L54.1952 13.3643Z" fill="white"/>
                    <path d="M118.725 0.265625H115.5L111.269 6.82918H106.711V0.265625H103.812V16.4434H106.718V9.36787H111.396L116.005 16.4416H119.295L113.763 7.84607L118.725 0.265625Z" fill="white"/>
                    <path d="M37.2252 0.555633C36.6586 0.145266 35.9791 -0.073689 35.2829 -0.0701447C34.5819 -0.0772122 33.8964 0.139192 33.3232 0.548522C32.73 0.993552 32.2789 1.60558 32.026 2.30852L26.7812 16.4934H29.9085L31.2179 12.8526H39.2673L40.5662 16.4934H43.7583L38.5031 2.31563C38.2698 1.60745 37.8228 0.991678 37.2252 0.555633ZM32.1417 10.3156L34.6273 3.39475C34.6798 3.22966 34.7678 3.07847 34.885 2.95208C34.986 2.86517 35.1156 2.82009 35.2479 2.82585C35.3756 2.82553 35.4995 2.87014 35.5984 2.95208C35.7292 3.07229 35.827 3.22479 35.8824 3.39475L38.354 10.3156H32.1329H32.1417Z" fill="white"/>
                    <path d="M78.507 9.17761C79.318 8.36341 79.7235 7.23748 79.7235 5.79985V4.86297C79.7235 3.42533 79.318 2.29941 78.507 1.48518C77.696 0.670961 76.5741 0.264443 75.1414 0.265628H66.4609V16.4434H69.369V10.3989H73.995L77.4815 16.4434H80.8103L77.0836 10.0861C77.618 9.89269 78.1039 9.58252 78.507 9.17761ZM76.8154 5.60963C76.8154 6.32074 76.6226 6.88785 76.2318 7.2914C75.8409 7.69496 75.2991 7.89407 74.605 7.89407H69.369V2.77763H74.605C75.2991 2.77763 75.8414 2.97792 76.2318 3.37852C76.6226 3.7803 76.8154 4.3403 76.8154 5.0603V5.60963Z" fill="white"/>
                    <path d="M92.0662 7.34979C91.9361 7.58268 91.7858 7.98446 91.4844 7.99512H91.4126C91.1094 7.98446 90.96 7.58268 90.8308 7.34979C89.9433 5.66623 88.3481 2.65645 87.0493 0.203125H83.6172L86.2463 5.05112L87.8541 7.99691C88.1606 8.53025 88.4655 9.23072 88.8581 9.70183C89.1545 10.0734 89.5261 10.3765 89.9466 10.5907V16.4574H92.936V10.5889C93.3573 10.3748 93.7289 10.0717 94.0261 9.69998C94.4188 9.22894 94.727 8.52493 95.0302 7.99512L96.6363 5.04935L99.2845 0.203125H95.8442L92.0628 7.34979H92.0662Z" fill="white"/>
                    <path d="M22.1973 0.285243H15.6993C15.5929 0.285475 15.4902 0.324611 15.41 0.395465L12.2004 3.25591C12.1514 3.15102 12.1006 3.04613 12.0427 2.9448C11.5299 2.01819 10.7715 1.25578 9.85332 0.74391C8.905 0.205243 7.7533 -0.0703125 6.4281 -0.0703125H6.37376C5.04855 -0.0703125 3.89513 0.205243 2.9503 0.74391C2.02982 1.25643 1.27042 2.02169 0.759158 2.95191C0.254359 3.87646 -0.00704821 4.91732 0.000144519 5.97414V16.5075H2.9801V5.97414C2.97488 5.52533 3.0585 5.08003 3.22603 4.6646C3.39357 4.24916 3.64159 3.87205 3.95542 3.55559C4.26926 3.23913 4.64251 2.98976 5.0531 2.82224C5.46367 2.65473 5.90322 2.57248 6.34571 2.58036H6.45439C7.04327 2.57008 7.62412 2.71978 8.13671 3.01394C8.64931 3.3081 9.07491 3.736 9.36953 4.25324C9.66872 4.77553 9.82317 5.37013 9.8165 5.97414V16.5075H12.7965V6.65147L18.6337 1.45147C18.7124 1.38151 18.8092 1.336 18.9128 1.32037C19.0162 1.30475 19.122 1.31966 19.2174 1.36333C19.3128 1.40701 19.3937 1.4776 19.4506 1.56669C19.5075 1.65576 19.5379 1.75956 19.5382 1.86569V16.4986H22.6338V0.72791C22.6334 0.610652 22.5872 0.498329 22.5055 0.415414C22.4237 0.332499 22.313 0.285711 22.1973 0.285243Z" fill="white"/>
                </g>
            </g>
        </g>
        <path d="M82.2228 22.7433H76.4138C76.3187 22.7435 76.2269 22.7789 76.1551 22.843L73.2859 25.4292C73.242 25.3343 73.1966 25.2395 73.1449 25.1479C72.6864 24.3101 72.0084 23.6208 71.1876 23.158C70.3398 22.671 69.3102 22.4219 68.1255 22.4219H68.0769C66.8922 22.4219 65.8611 22.671 65.0164 23.158C64.1936 23.6214 63.5147 24.3133 63.0576 25.1543C62.6063 25.9902 62.3727 26.9313 62.3791 27.8867V37.4101H65.0431V27.8867C65.0384 27.481 65.1132 27.0784 65.2629 26.7028C65.4127 26.3272 65.6345 25.9862 65.915 25.7001C66.1956 25.414 66.5292 25.1885 66.8963 25.0371C67.2634 24.8856 67.6563 24.8113 68.0519 24.8184H68.149C68.6755 24.8091 69.1947 24.9444 69.653 25.2104C70.1112 25.4763 70.4917 25.8632 70.7551 26.3309C71.0226 26.8031 71.1606 27.3407 71.1547 27.8867V37.4101H73.8187V28.4991L79.037 23.7977C79.1074 23.7345 79.194 23.6933 79.2865 23.6792C79.379 23.6651 79.4736 23.6786 79.5588 23.7181C79.6441 23.7575 79.7164 23.8214 79.7673 23.9019C79.8182 23.9824 79.8454 24.0763 79.8456 24.1722V37.4021H82.613V23.1436C82.6127 23.0375 82.5714 22.936 82.4983 22.861C82.4252 22.7861 82.3263 22.7438 82.2228 22.7433Z" fill="white"/>
        <path d="M54.5101 23.5487C54.1354 23.1691 53.4187 22.7904 52.6366 22.7945C51.8044 22.7988 51.1378 23.1691 50.7631 23.5438C50.3884 23.9185 50.3884 23.9184 50.0137 24.6679L45.1425 37.4103H47.9034L49.0594 34.1158H56.1658L57.3126 37.4103H60.1307L55.3595 25.157C55.1536 24.5161 54.9729 24.0176 54.5101 23.5487ZM49.875 31.8201L52.0694 25.5575C52.1158 25.4081 52.1935 25.2713 52.297 25.157C52.386 25.0783 52.5005 25.0375 52.6173 25.0428C52.73 25.0425 52.8395 25.0828 52.9268 25.157C53.0423 25.2657 53.1286 25.4037 53.1775 25.5575L55.3595 31.8201H49.8672H49.875Z" fill="white"/>
        <path d="M21.1654 29.5137C21.05 29.7204 20.9166 30.0769 20.649 30.0864H20.5853C20.3163 30.0769 20.1837 29.7204 20.069 29.5137C19.2814 28.0196 17.8657 25.3485 16.7131 23.1713H13.6672L16.0005 27.4737L17.4273 30.088C17.6994 30.5613 17.9699 31.1829 18.3184 31.601C18.5814 31.9308 18.9112 32.1997 19.2844 32.3898V37.4101H21.9373V32.3883C22.3112 32.1982 22.641 31.9293 22.9048 31.5994C23.2533 31.1813 23.5268 30.5566 23.7958 30.0864L27.5714 23.1713H24.5183L21.1624 29.5137H21.1654Z" fill="white"/>
        <path d="M0 22.9543H4.60261C6.06802 22.9543 7.34767 23.2639 8.4622 23.8625C9.5561 24.4817 10.4023 25.3279 11.0009 26.4011C11.5788 27.495 11.8884 28.754 11.8884 30.1782C11.8884 31.6023 11.5788 32.8613 11.0009 33.9552C10.4023 35.0491 9.5561 35.8953 8.4622 36.4939C7.34767 37.1131 6.06802 37.402 4.60261 37.402H0V22.9543ZM4.60261 35.3381C6.15058 35.3381 7.34767 34.884 8.19389 33.9552C9.01947 33.0264 9.4529 31.7674 9.4529 30.1782C9.4529 28.6096 9.01947 27.3505 8.19389 26.4218C7.34767 25.493 6.15058 25.0183 4.60261 25.0183H3.49766C2.87683 25.0183 2.37354 25.5216 2.37354 26.1424V34.2139C2.37354 34.8348 2.87683 35.3381 3.49766 35.3381H4.60261Z" fill="white"/>
        <path d="M30.7634 37.402V23.1717H32.9305L39.2873 32.2215C39.4977 32.5211 39.9686 32.3722 39.9686 32.0062V23.1717H42.3008V37.402H40.1337L33.7791 28.1589C33.5706 27.8557 33.0956 28.0032 33.0956 28.3712V37.402H30.7634Z" fill="white"/>
        <path d="M86.2355 23.4878C86.2355 23.0739 86.571 22.7384 86.9849 22.7384H87.8597C88.2735 22.7384 88.6091 23.0739 88.6091 23.4878V37.4122H86.2355V23.4878Z" fill="white"/>
        <path d="M93.03 26.4424C93.6079 25.3279 94.4129 24.4817 95.4655 23.8625C96.5181 23.2433 97.7565 22.9337 99.1599 22.9337C100.233 22.9337 101.224 23.1401 102.091 23.5529C102.958 23.9657 103.68 24.5642 104.237 25.3279C104.774 26.0915 105.125 26.979 105.29 27.9697H103.489C103.151 27.9697 102.861 27.7407 102.735 27.4271C102.471 26.7691 102.077 26.2276 101.554 25.8026C100.873 25.2866 100.047 25.0183 99.0567 25.0183C98.1486 25.0183 97.3643 25.2453 96.7038 25.6994C96.0227 26.1534 95.5067 26.7726 95.1559 27.5569C94.7844 28.3412 94.6192 29.2494 94.6192 30.2814C94.6192 31.3133 94.7844 32.2215 95.1559 33.0058C95.5067 33.8107 96.0227 34.4299 96.7038 34.884C97.3643 35.3381 98.1486 35.5445 99.0567 35.5445C100.047 35.5445 100.873 35.2968 101.533 34.7602C102.058 34.3503 102.452 33.8102 102.717 33.1399C102.841 32.8241 103.132 32.593 103.471 32.593H105.269C105.104 33.625 104.753 34.5125 104.217 35.2555C103.68 36.0192 102.978 36.5971 102.111 37.0099C101.245 37.4227 100.254 37.629 99.1599 37.629C97.7565 37.629 96.5181 37.3401 95.4655 36.7209C94.4129 36.1224 93.6079 35.2761 93.03 34.1616C92.4521 33.047 92.1838 31.7674 92.1838 30.2814C92.1838 28.8366 92.4521 27.5569 93.03 26.4424Z" fill="white"/>
        <path d="M111.098 32.82C111.16 33.6869 111.511 34.368 112.13 34.884C112.749 35.4 113.575 35.6477 114.586 35.6477C115.453 35.6477 116.175 35.4619 116.712 35.0904C117.249 34.7189 117.538 34.1822 117.538 33.5011C117.538 33.0264 117.372 32.6549 117.083 32.3659C116.795 32.077 116.382 31.8706 115.886 31.7055C115.37 31.561 114.648 31.3959 113.74 31.2308C112.79 31.0657 111.986 30.8593 111.325 30.5909C110.665 30.3226 110.107 29.9098 109.695 29.3526C109.282 28.8159 109.075 28.0936 109.075 27.1854C109.075 26.3598 109.282 25.6375 109.715 24.977C110.149 24.3372 110.747 23.8418 111.531 23.4703C112.316 23.1194 113.203 22.9337 114.215 22.9337C115.247 22.9337 116.155 23.1401 116.98 23.5116C117.785 23.9037 118.425 24.4404 118.9 25.1008C119.354 25.7819 119.622 26.5456 119.663 27.4125H117.331C117.249 26.6694 116.918 26.0709 116.361 25.6168C115.783 25.1628 115.081 24.9357 114.215 24.9357C113.368 24.9357 112.687 25.1215 112.192 25.493C111.697 25.8645 111.449 26.3598 111.449 27.0203C111.449 27.495 111.593 27.8665 111.882 28.1348C112.171 28.4238 112.584 28.6302 113.079 28.754C113.575 28.8985 114.277 29.043 115.205 29.2081C116.134 29.3732 116.939 29.6002 117.62 29.8686C118.281 30.1575 118.838 30.5497 119.271 31.0863C119.684 31.6229 119.911 32.3453 119.911 33.2122C119.911 34.079 119.684 34.8427 119.23 35.5032C118.776 36.1843 118.136 36.7209 117.331 37.0924C116.506 37.4639 115.597 37.6497 114.565 37.6497C113.41 37.6497 112.419 37.4433 111.552 37.0305C110.685 36.6177 110.004 36.0604 109.509 35.3174C109.013 34.5744 108.766 33.7282 108.766 32.7787L111.098 32.82Z" fill="white"/>
        <defs>
            <clipPath id="clip0_1968_34372">
                <rect width="120" height="17" fill="white"/>
            </clipPath>
            <clipPath id="clip1_1968_34372">
                <rect width="119.911" height="31.2444" fill="white" transform="translate(0 -7.25)"/>
            </clipPath>
            <clipPath id="clip2_1968_34372">
                <rect width="119.911" height="31.2444" fill="white" transform="translate(0 -7.25)"/>
            </clipPath>
        </defs>
    </symbol>


    <symbol id="mav-logo-small"
        xmlns="http://www.w3.org/2000/svg" width="24" height="25" viewBox="0 0 24 25" fill="none">
        <g clip-path="url(#clip0_1968_34342)">
            <path d="M11.999 0.5C5.37261 0.5 0 5.87261 0 12.499C0 19.1253 5.37261 24.498 11.999 24.498C18.6253 24.498 23.998 19.1253 23.998 12.499C23.998 5.87261 18.6273 0.5 11.999 0.5ZM17.3099 16.4081H15.8629V9.66468C15.8629 9.44476 15.604 9.32967 15.4396 9.47353L12.7142 11.87V16.4041H11.3187V11.5124C11.3187 11.2206 11.2488 10.9534 11.109 10.717C10.9693 10.4786 10.7802 10.2895 10.5438 10.1518C10.3095 10.0141 10.0403 9.94421 9.74633 9.94421H9.69496C9.40104 9.94421 9.1318 10.0141 8.89749 10.1518C8.66113 10.2895 8.47204 10.4786 8.33228 10.717C8.19457 10.9534 8.12264 11.2206 8.12264 11.5124V16.4041H6.72707V11.5124C6.72707 11.0048 6.84628 10.5361 7.08059 10.1127C7.31695 9.68935 7.66019 9.34816 8.10413 9.09947C8.54603 8.85077 9.08452 8.72335 9.70524 8.72335H9.73195C10.3506 8.72335 10.8912 8.84872 11.3331 9.09947C11.777 9.35021 12.1223 9.6914 12.3566 10.1127C12.3895 10.1703 12.4183 10.2299 12.447 10.2895L13.9309 8.98643C13.968 8.95355 14.0152 8.93504 14.0667 8.93504H17.1044C17.2175 8.93504 17.3079 9.02548 17.3079 9.13852V16.4061L17.3099 16.4081Z" fill="white"/>
        </g>
        <defs>
            <clipPath id="clip0_1968_34342">
                <rect width="24" height="24" fill="white" transform="translate(0 0.5)"/>
            </clipPath>
        </defs>
    </symbol>

    <!-- Icons -->
    <symbol id="link-arrow"
        xmlns="http://www.w3.org/2000/svg" width="16" height="17" viewBox="0 0 16 17" fill="none">
        <path d="M4 13.1667L12.6667 4.5M12.6667 4.5V12.82M12.6667 4.5H4.34667" stroke="white" stroke-opacity="0.5" stroke-linecap="round" stroke-linejoin="round"/>
    </symbol>

    <symbol id="rocket-small"
        xmlns="http://www.w3.org/2000/svg" width="24" height="25" viewBox="0 0 24 25" fill="none">
        <path d="M6.11847 12.2842L2.88281 9.98057C4.26573 8.84014 6.83455 7.3246 9.03965 7.21094" fill="#86D4C9"/>
        <path d="M16.3372 15.4442C20.073 13.2845 22.2326 10.0299 21.1603 8.16961C20.0881 6.31309 16.1932 6.55557 12.4574 8.71521C8.72166 10.8748 6.56203 14.1294 7.63426 15.9898C8.7065 17.8463 12.6014 17.6038 16.3372 15.4442Z" fill="#77A4F2"/>
        <path d="M2.1028 15.4919C1.20864 16.0109 0.246274 17.4696 0 18.4812C0.996461 18.7692 2.74311 18.6707 3.63727 18.1516C4.3723 17.7273 4.62237 16.7876 4.19802 16.0564C3.77367 15.3214 2.83783 15.0713 2.1028 15.4956V15.4919Z" fill="#FF8486"/>
        <path d="M15.1341 13.366C18.8699 11.2064 21.0295 7.9518 19.9572 6.09149C18.885 4.23496 14.9901 4.47745 11.2543 6.63708C7.51853 8.79672 5.3589 12.0513 6.43114 13.9116C7.50338 15.7682 11.3983 15.5257 15.1341 13.366Z" fill="white"/>
        <path d="M13.8703 12.8411C17.2044 10.9126 19.258 8.22635 18.4585 6.83585C17.6591 5.44535 14.306 5.88485 10.9718 7.80958C7.63764 9.73807 5.5841 12.4243 6.38354 13.8148C7.18299 15.2053 10.5361 14.7658 13.8703 12.8411Z" fill="#86D4C9"/>
        <path d="M19.0156 10.1022L20.0878 11.9625C20.0878 11.9625 20.5766 11.5761 20.7509 11.2313C20.9214 10.8827 21.6753 9.51118 21.1184 8.51851C20.5614 7.52206 20.3303 7.21516 20.1674 7.78349C20.0045 8.34801 19.0156 10.106 19.0156 10.106V10.1022Z" fill="white"/>
        <path d="M10.698 15.0311C9.53104 15.2319 9.01197 15.1865 8.26936 15.0084C7.52675 14.8303 7.6139 15.1107 7.20092 15.626C6.79172 16.1375 5.61719 20.0703 5.61719 20.0703C5.61719 20.0703 7.18955 20.2218 8.96651 19.1988C10.7435 18.1721 14.9794 15.2281 14.9339 14.2582C14.8884 13.2883 14.5399 14.046 13.4032 14.3643C12.2704 14.6863 10.698 15.0349 10.698 15.0349V15.0311Z" fill="#86D4C9"/>
        <path d="M3.28478 10.0833C5.13374 9.09061 7.2138 8.16613 8.3997 8.43135C8.3997 8.43135 9.02107 7.32122 8.82026 7.22271C8.61567 7.1242 4.33051 8.8898 3.50453 9.49601C2.67857 10.1022 3.28478 10.0833 3.28478 10.0833Z" fill="white"/>
        <path d="M8.00252 11.9649C6.83935 12.2832 5.85046 12.6583 5.13438 13.0296C4.42208 13.4009 4.13413 13.5411 4.1758 13.8821C4.21748 14.2193 5.05481 16.2122 5.464 16.4395C5.8732 16.6669 6.50593 16.3373 6.72568 15.7954C6.94543 15.2574 6.94543 14.9733 7.64258 14.1625C8.33972 13.3517 9.57488 11.874 8.00252 11.9649Z" fill="#86D4C9"/>
        <path d="M4.39844 14.279C4.94403 13.9646 6.26254 13.1879 8.26683 12.6953L7.82732 13.5364L4.69397 15.3475L4.40223 14.279H4.39844Z" fill="white"/>
        <path d="M6.01461 19.6097C7.26114 19.1361 10.8605 17.7494 13.1603 14.7372C13.1603 14.7372 14.7516 13.6536 14.9903 13.6802C15.229 13.7029 13.5506 16.4233 11.1901 17.7683C8.8335 19.1133 5.63952 20.5948 6.01461 19.6135V19.6097Z" fill="white"/>
        <path d="M16.6976 7.41625C17.9404 9.57211 10.143 14.0808 8.90024 11.925C7.6575 9.76913 8.39632 7.01464 10.5484 5.76812C12.7004 4.52538 15.4549 5.26041 16.6976 7.42004V7.41625Z" fill="#86D4C9"/>
        <path d="M23.8454 5.3214C23.5347 4.78338 22.8489 4.59773 22.3109 4.90841C21.8903 5.1509 21.6895 5.6245 21.7729 6.07916L20.2422 6.96575L20.6249 7.62879L22.1555 6.74221C22.5079 7.03773 23.0156 7.10214 23.4362 6.85966C23.9742 6.54897 24.1598 5.85941 23.8454 5.32518V5.3214Z" fill="#38237C"/>
        <path d="M21.3446 8.11899L20.1208 5.99725C19.2796 4.57265 17.0329 4.19756 14.2367 5.00458C12.9864 4.62191 11.5845 4.73178 10.3645 5.43651C9.7356 5.80023 9.2241 6.2852 8.83007 6.84216C6.66665 7.02781 4.23801 8.40695 2.7831 9.56254C2.65428 9.66484 2.58229 9.82018 2.58608 9.9831C2.58987 10.1498 2.67322 10.3052 2.80962 10.3999L5.41634 12.2564C5.04882 12.4193 4.6472 12.6201 4.20012 12.8816C3.41962 13.3324 3.91217 14.9957 4.51081 16.0339C4.96168 16.8181 5.47317 17.3789 5.95814 17.6441L5.34056 19.6863C5.28373 19.8757 5.32919 20.0765 5.4618 20.2243C5.56789 20.3455 5.71944 20.4099 5.87857 20.4099C5.91267 20.4099 5.95056 20.4099 5.98466 20.3986C7.32211 20.1447 10.1448 19.2354 12.5014 17.4585V17.466C13.7745 17.1667 15.1195 16.6211 16.3888 15.8861C20.3557 13.5939 22.5305 10.1801 21.3446 8.11899ZM19.4729 6.39887C19.9124 7.16042 19.7002 8.26298 18.8742 9.50571C17.9952 10.8242 16.5479 12.1124 14.7975 13.124C12.2059 14.6244 9.41355 15.2155 7.77298 14.6585L9.15969 12.6618C9.44386 12.8058 9.78485 12.874 10.1713 12.874C11.2549 12.874 12.6606 12.3549 13.9298 11.6199C16.0326 10.4037 17.8096 8.57366 17.0367 7.22862C16.6161 6.50117 16.0402 5.92526 15.3696 5.51228C17.3549 5.12203 18.9159 5.43651 19.4729 6.39887ZM10.7472 6.09955C11.3837 5.73203 12.0885 5.54638 12.8008 5.54638C13.1569 5.54638 13.5206 5.59564 13.873 5.68657C14.9339 5.97073 15.8242 6.65651 16.3774 7.61129C16.6388 8.06216 16.2145 8.69869 15.9227 9.05863C16.0326 8.75173 16.0402 8.45621 15.8924 8.20614C14.8316 6.36477 12.4787 5.73203 10.6373 6.79669C9.40976 7.50899 8.72019 8.79341 8.7164 10.1195C8.54969 8.54335 9.2923 6.94067 10.751 6.09955H10.7472ZM3.51434 9.96416C4.84422 8.96391 6.70832 7.97123 8.35646 7.67191C8.22764 7.96365 8.12535 8.26677 8.05336 8.57745C6.99628 9.59664 6.25745 10.6651 5.9013 11.6653L3.51434 9.96416ZM8.30721 11.5517C8.25038 11.5593 8.19354 11.5668 8.1405 11.5706C7.69721 11.6199 7.22361 11.6691 6.66286 11.8169C6.90913 11.1804 7.34485 10.4946 7.93212 9.81639C7.94727 10.3999 8.07609 10.9871 8.30721 11.5517ZM5.27994 15.8179C5.24584 15.7611 5.20795 15.708 5.17385 15.6474C4.55627 14.5752 4.49565 13.6696 4.58658 13.537C6.32944 12.5292 7.2918 12.4269 8.22386 12.3284C8.311 12.3208 8.39814 12.3057 8.48528 12.2943L7.10236 14.2872C6.9546 14.4956 6.84472 14.7305 6.76895 14.973L6.57193 15.6171C6.40522 15.7118 6.19683 15.833 6.04907 15.9202C5.81795 16.0566 5.53 16.0869 5.27994 15.8179ZM6.17031 19.5802L7.43578 15.3443C7.94348 15.5299 8.53833 15.6247 9.19379 15.6247C10.7699 15.6247 12.6871 15.098 14.5739 14.1091C12.6113 17.4585 8.19733 19.1142 6.17031 19.5802ZM13.8919 16.2347C14.2064 15.9088 14.5057 15.564 14.7747 15.1965L15.0778 15.7232C14.6838 15.9164 14.286 16.0869 13.8919 16.2347ZM16.0099 15.223C15.8583 15.3102 15.7068 15.3935 15.5514 15.4769L15.1082 14.704C15.3052 14.3895 15.4832 14.0561 15.6386 13.7113L16.3774 14.9957C16.2562 15.0715 16.1349 15.1473 16.0099 15.2193V15.223ZM16.8283 14.7116L15.9985 13.268C16.2675 13.0899 16.5327 12.9081 16.7828 12.7148L17.6088 14.1508C17.3587 14.3403 17.1011 14.5297 16.8283 14.7116ZM18.0293 13.8174L17.2034 12.3852C17.4572 12.1768 17.7073 11.9647 17.9384 11.7487L18.7568 13.1657C18.5295 13.3855 18.287 13.6014 18.0293 13.8136V13.8174ZM19.1432 12.7717L18.3324 11.3622C18.5749 11.116 18.7947 10.8621 18.9993 10.6083L19.7987 11.995C19.6017 12.2526 19.3857 12.514 19.1432 12.7717ZM20.1359 11.5138L19.3478 10.1498C19.4009 10.0778 19.4577 10.002 19.507 9.93006C19.6661 9.69136 19.7949 9.45646 19.9162 9.22534L20.6626 10.5173C20.5337 10.8394 20.3595 11.1766 20.1359 11.5176V11.5138ZM20.8634 9.79366L20.1814 8.61534C20.2647 8.3918 20.3254 8.17204 20.3708 7.95986L20.6815 8.49788C20.8937 8.8654 20.9429 9.30869 20.8634 9.79366Z" fill="#38237C"/>
    </symbol>

    <symbol id="copyright"
        xmlns="http://www.w3.org/2000/svg" width="16" height="16" viewBox="0 0 16 16" fill="none">
        <g clip-path="url(#clip0_2134_127578)">
            <path d="M6.7226 7.2426C6.75594 7.0226 6.82927 6.82927 6.9226 6.6626C7.01594 6.49594 7.14927 6.35594 7.31594 6.24927C7.47594 6.14927 7.67594 6.1026 7.9226 6.09594C8.07594 6.1026 8.21594 6.12927 8.3426 6.1826C8.47594 6.2426 8.59594 6.3226 8.68927 6.4226C8.7826 6.5226 8.85594 6.6426 8.91594 6.77594C8.97594 6.90927 9.0026 7.05594 9.00927 7.2026H10.2026C10.1893 6.88927 10.1293 6.6026 10.0159 6.3426C9.9026 6.0826 9.74927 5.85594 9.54927 5.66927C9.34927 5.4826 9.10927 5.33594 8.82927 5.22927C8.54927 5.1226 8.2426 5.07594 7.9026 5.07594C7.46927 5.07594 7.08927 5.14927 6.76927 5.3026C6.44927 5.45594 6.1826 5.65594 5.96927 5.91594C5.75594 6.17594 5.59594 6.47594 5.49594 6.8226C5.39594 7.16927 5.33594 7.52927 5.33594 7.91594V8.09594C5.33594 8.4826 5.38927 8.8426 5.48927 9.18927C5.58927 9.53594 5.74927 9.83594 5.9626 10.0893C6.17594 10.3426 6.4426 10.5493 6.7626 10.6959C7.0826 10.8426 7.4626 10.9226 7.89594 10.9226C8.20927 10.9226 8.5026 10.8693 8.77594 10.7693C9.04927 10.6693 9.28927 10.5293 9.49594 10.3493C9.7026 10.1693 9.86927 9.9626 9.98927 9.7226C10.1093 9.4826 10.1826 9.22927 10.1893 8.95594H8.99594C8.98927 9.09594 8.95594 9.2226 8.89594 9.3426C8.83594 9.4626 8.75594 9.5626 8.65594 9.64927C8.55594 9.73594 8.4426 9.8026 8.30927 9.84927C8.1826 9.89594 8.04927 9.90927 7.90927 9.91594C7.66927 9.90927 7.46927 9.8626 7.31594 9.7626C7.14927 9.65594 7.01594 9.51594 6.9226 9.34927C6.82927 9.1826 6.75594 8.9826 6.7226 8.7626C6.68927 8.5426 6.66927 8.31594 6.66927 8.09594V7.91594C6.66927 7.6826 6.68927 7.4626 6.7226 7.2426ZM8.0026 1.33594C4.3226 1.33594 1.33594 4.3226 1.33594 8.0026C1.33594 11.6826 4.3226 14.6693 8.0026 14.6693C11.6826 14.6693 14.6693 11.6826 14.6693 8.0026C14.6693 4.3226 11.6826 1.33594 8.0026 1.33594ZM8.0026 13.3359C5.0626 13.3359 2.66927 10.9426 2.66927 8.0026C2.66927 5.0626 5.0626 2.66927 8.0026 2.66927C10.9426 2.66927 13.3359 5.0626 13.3359 8.0026C13.3359 10.9426 10.9426 13.3359 8.0026 13.3359Z" fill="#F4F4F4"/>
        </g>
        <defs>
            <clipPath id="clip0_2134_127578">
                <rect width="16" height="16" fill="white"/>
            </clipPath>
        </defs>
    </symbol>
</svg>