<svg width="120" height="46" viewBox="0 0 120 46" fill="none" xmlns="http://www.w3.org/2000/svg">
<g clip-path="url(#clip0_1968_34372)">
<g clip-path="url(#clip1_1968_34372)">
<path d="M54.1952 21.3643C54.1386 21.5282 54.0464 21.6771 53.9252 21.7998C53.8243 21.8867 53.6947 21.9318 53.5624 21.9261C53.4347 21.9261 53.3109 21.8815 53.2118 21.7998C53.0816 21.6792 52.9838 21.5268 52.9278 21.3572L48.2546 8.26562H45.0625L50.3125 22.4434C50.5472 23.1513 50.9947 23.7667 51.5921 24.2034C52.1576 24.6109 52.8354 24.8274 53.5291 24.822C54.2303 24.8302 54.9161 24.6137 55.4889 24.2034C56.0819 23.7587 56.5325 23.1465 56.7842 22.4434L62.0308 8.26562H58.9018L54.1952 21.3643Z" fill="white"/>
<path d="M118.725 8.26562H115.5L111.269 14.8292H106.711V8.26562H103.812V24.4434H106.718V17.3679H111.396L116.005 24.4416H119.295L113.763 15.8461L118.725 8.26562Z" fill="white"/>
<path d="M37.2252 8.55563C36.6586 8.14527 35.9791 7.92631 35.2829 7.92986C34.5819 7.92279 33.8964 8.13919 33.3232 8.54852C32.73 8.99355 32.2789 9.60558 32.026 10.3085L26.7812 24.4934H29.9085L31.2179 20.8526H39.2673L40.5662 24.4934H43.7583L38.5031 10.3156C38.2698 9.60745 37.8228 8.99168 37.2252 8.55563ZM32.1417 18.3156L34.6273 11.3947C34.6798 11.2297 34.7678 11.0785 34.885 10.9521C34.986 10.8652 35.1156 10.8201 35.2479 10.8259C35.3756 10.8255 35.4995 10.8701 35.5984 10.9521C35.7292 11.0723 35.827 11.2248 35.8824 11.3947L38.354 18.3156H32.1329H32.1417Z" fill="white"/>
<path d="M78.507 17.1776C79.318 16.3634 79.7235 15.2375 79.7235 13.7999V12.863C79.7235 11.4253 79.318 10.2994 78.507 9.48518C77.696 8.67096 76.5741 8.26444 75.1414 8.26563H66.4609V24.4434H69.369V18.3989H73.995L77.4815 24.4434H80.8103L77.0836 18.0861C77.618 17.8927 78.1039 17.5825 78.507 17.1776ZM76.8154 13.6096C76.8154 14.3207 76.6226 14.8879 76.2318 15.2914C75.8409 15.695 75.2991 15.8941 74.605 15.8941H69.369V10.7776H74.605C75.2991 10.7776 75.8414 10.9779 76.2318 11.3785C76.6226 11.7803 76.8154 12.3403 76.8154 13.0603V13.6096Z" fill="white"/>
<path d="M92.0662 15.3498C91.9361 15.5827 91.7858 15.9845 91.4844 15.9951H91.4126C91.1094 15.9845 90.96 15.5827 90.8308 15.3498C89.9433 13.6662 88.3481 10.6565 87.0493 8.20312H83.6172L86.2463 13.0511L87.8541 15.9969C88.1606 16.5302 88.4655 17.2307 88.8581 17.7018C89.1545 18.0734 89.5261 18.3765 89.9466 18.5907V24.4574H92.936V18.5889C93.3573 18.3748 93.7289 18.0717 94.0261 17.7C94.4188 17.2289 94.727 16.5249 95.0302 15.9951L96.6363 13.0493L99.2845 8.20312H95.8442L92.0628 15.3498H92.0662Z" fill="white"/>
<path d="M22.1973 8.28524H15.6993C15.5929 8.28547 15.4902 8.32461 15.41 8.39547L12.2004 11.2559C12.1514 11.151 12.1006 11.0461 12.0427 10.9448C11.5299 10.0182 10.7715 9.25578 9.85332 8.74391C8.905 8.20524 7.7533 7.92969 6.4281 7.92969H6.37376C5.04855 7.92969 3.89513 8.20524 2.9503 8.74391C2.02982 9.25643 1.27042 10.0217 0.759158 10.9519C0.254359 11.8765 -0.00704821 12.9173 0.000144519 13.9741V24.5075H2.9801V13.9741C2.97488 13.5253 3.0585 13.08 3.22603 12.6646C3.39357 12.2492 3.64159 11.8721 3.95542 11.5556C4.26926 11.2391 4.64251 10.9898 5.0531 10.8222C5.46367 10.6547 5.90322 10.5725 6.34571 10.5804H6.45439C7.04327 10.5701 7.62412 10.7198 8.13671 11.0139C8.64931 11.3081 9.07491 11.736 9.36953 12.2532C9.66872 12.7755 9.82317 13.3701 9.8165 13.9741V24.5075H12.7965V14.6515L18.6337 9.45147C18.7124 9.38151 18.8092 9.336 18.9128 9.32037C19.0162 9.30475 19.122 9.31966 19.2174 9.36333C19.3128 9.40701 19.3937 9.4776 19.4506 9.56669C19.5075 9.65576 19.5379 9.75956 19.5382 9.86569V24.4986H22.6338V8.72791C22.6334 8.61065 22.5872 8.49833 22.5055 8.41541C22.4237 8.3325 22.313 8.28571 22.1973 8.28524Z" fill="white"/>
</g>
</g>
<path d="M82.2228 30.7433H76.4138C76.3187 30.7435 76.2269 30.7789 76.1551 30.843L73.2859 33.4292C73.242 33.3343 73.1966 33.2395 73.1449 33.1479C72.6864 32.3101 72.0084 31.6208 71.1876 31.158C70.3398 30.671 69.3102 30.4219 68.1255 30.4219H68.0769C66.8922 30.4219 65.8611 30.671 65.0164 31.158C64.1936 31.6214 63.5147 32.3133 63.0576 33.1543C62.6063 33.9902 62.3727 34.9313 62.3791 35.8867V45.4101H65.0431V35.8867C65.0384 35.481 65.1132 35.0784 65.2629 34.7028C65.4127 34.3272 65.6344 33.9862 65.915 33.7001C66.1956 33.414 66.5293 33.1885 66.8963 33.0371C67.2634 32.8856 67.6563 32.8113 68.0519 32.8184H68.149C68.6755 32.8091 69.1947 32.9444 69.653 33.2104C70.1112 33.4763 70.4917 33.8632 70.7551 34.3309C71.0226 34.8031 71.1606 35.3407 71.1547 35.8867V45.4101H73.8187V36.4991L79.037 31.7977C79.1074 31.7345 79.194 31.6933 79.2865 31.6792C79.379 31.6651 79.4736 31.6786 79.5588 31.7181C79.6441 31.7575 79.7164 31.8214 79.7673 31.9019C79.8182 31.9824 79.8454 32.0763 79.8456 32.1722V45.4021H82.613V31.1436C82.6127 31.0375 82.5714 30.936 82.4983 30.861C82.4252 30.7861 82.3263 30.7438 82.2228 30.7433Z" fill="white"/>
<path d="M54.5101 31.5487C54.1354 31.1691 53.4187 30.7904 52.6366 30.7945C51.8044 30.7988 51.1378 31.1691 50.7631 31.5438C50.3884 31.9185 50.3884 31.9184 50.0137 32.6679L45.1425 45.4103H47.9034L49.0594 42.1158H56.1658L57.3126 45.4103H60.1307L55.3595 33.157C55.1536 32.5161 54.9729 32.0176 54.5101 31.5487ZM49.875 39.8201L52.0694 33.5575C52.1158 33.4081 52.1935 33.2713 52.297 33.157C52.386 33.0783 52.5005 33.0375 52.6173 33.0428C52.73 33.0425 52.8395 33.0828 52.9268 33.157C53.0422 33.2657 53.1286 33.4037 53.1775 33.5575L55.3595 39.8201H49.8672H49.875Z" fill="white"/>
<path d="M21.1654 37.5137C21.05 37.7204 20.9166 38.0769 20.649 38.0864H20.5853C20.3163 38.0769 20.1837 37.7204 20.069 37.5137C19.2814 36.0196 17.8657 33.3485 16.7131 31.1713H13.6672L16.0005 35.4737L17.4273 38.088C17.6994 38.5613 17.9699 39.1829 18.3184 39.601C18.5814 39.9308 18.9112 40.1997 19.2844 40.3898V45.4101H21.9373V40.3883C22.3112 40.1982 22.641 39.9293 22.9048 39.5994C23.2533 39.1813 23.5268 38.5566 23.7958 38.0864L27.5714 31.1713H24.5183L21.1624 37.5137H21.1654Z" fill="white"/>
<path d="M0 30.9543H4.60261C6.06802 30.9543 7.34767 31.2639 8.4622 31.8625C9.5561 32.4817 10.4023 33.3279 11.0009 34.4011C11.5788 35.495 11.8884 36.754 11.8884 38.1782C11.8884 39.6023 11.5788 40.8613 11.0009 41.9552C10.4023 43.0491 9.5561 43.8953 8.4622 44.4939C7.34767 45.1131 6.06802 45.402 4.60261 45.402H0V30.9543ZM4.60261 43.3381C6.15058 43.3381 7.34767 42.884 8.19389 41.9552C9.01947 41.0264 9.4529 39.7674 9.4529 38.1782C9.4529 36.6096 9.01947 35.3505 8.19389 34.4218C7.34767 33.493 6.15058 33.0183 4.60261 33.0183H3.49766C2.87683 33.0183 2.37354 33.5216 2.37354 34.1424V42.2139C2.37354 42.8348 2.87683 43.3381 3.49766 43.3381H4.60261Z" fill="white"/>
<path d="M30.7634 45.402V31.1717H32.9305L39.2873 40.2215C39.4977 40.5211 39.9686 40.3722 39.9686 40.0062V31.1717H42.3008V45.402H40.1337L33.7791 36.1589C33.5706 35.8557 33.0956 36.0032 33.0956 36.3712V45.402H30.7634Z" fill="white"/>
<path d="M86.2355 31.4878C86.2355 31.0739 86.571 30.7384 86.9849 30.7384H87.8597C88.2735 30.7384 88.6091 31.0739 88.6091 31.4878V45.4122H86.2355V31.4878Z" fill="white"/>
<path d="M93.03 34.4424C93.6079 33.3279 94.4129 32.4817 95.4655 31.8625C96.5181 31.2433 97.7565 30.9337 99.1599 30.9337C100.233 30.9337 101.224 31.1401 102.091 31.5529C102.958 31.9657 103.68 32.5642 104.237 33.3279C104.774 34.0915 105.125 34.979 105.29 35.9697H103.489C103.151 35.9697 102.861 35.7407 102.735 35.4271C102.471 34.7691 102.077 34.2276 101.554 33.8026C100.873 33.2866 100.047 33.0183 99.0567 33.0183C98.1486 33.0183 97.3643 33.2453 96.7038 33.6994C96.0228 34.1534 95.5067 34.7726 95.1559 35.5569C94.7844 36.3412 94.6192 37.2494 94.6192 38.2814C94.6192 39.3133 94.7844 40.2215 95.1559 41.0058C95.5067 41.8107 96.0228 42.4299 96.7038 42.884C97.3643 43.3381 98.1486 43.5445 99.0567 43.5445C100.047 43.5445 100.873 43.2968 101.533 42.7602C102.058 42.3503 102.452 41.8102 102.717 41.1399C102.841 40.8241 103.132 40.593 103.471 40.593H105.269C105.104 41.625 104.753 42.5125 104.217 43.2555C103.68 44.0192 102.978 44.5971 102.111 45.0099C101.245 45.4227 100.254 45.629 99.1599 45.629C97.7565 45.629 96.5181 45.3401 95.4655 44.7209C94.4129 44.1224 93.6079 43.2761 93.03 42.1616C92.4521 41.047 92.1838 39.7674 92.1838 38.2814C92.1838 36.8366 92.4521 35.5569 93.03 34.4424Z" fill="white"/>
<path d="M111.098 40.82C111.16 41.6869 111.511 42.368 112.13 42.884C112.749 43.4 113.575 43.6477 114.586 43.6477C115.453 43.6477 116.175 43.4619 116.712 43.0904C117.249 42.7189 117.538 42.1822 117.538 41.5011C117.538 41.0264 117.372 40.6549 117.083 40.3659C116.795 40.077 116.382 39.8706 115.886 39.7055C115.37 39.561 114.648 39.3959 113.74 39.2308C112.79 39.0657 111.986 38.8593 111.325 38.5909C110.665 38.3226 110.107 37.9098 109.695 37.3526C109.282 36.8159 109.075 36.0936 109.075 35.1854C109.075 34.3598 109.282 33.6375 109.715 32.977C110.149 32.3372 110.747 31.8418 111.531 31.4703C112.316 31.1194 113.203 30.9337 114.215 30.9337C115.247 30.9337 116.155 31.1401 116.98 31.5116C117.785 31.9037 118.425 32.4404 118.9 33.1008C119.354 33.7819 119.622 34.5456 119.663 35.4125H117.331C117.249 34.6694 116.918 34.0709 116.361 33.6168C115.783 33.1628 115.081 32.9357 114.215 32.9357C113.368 32.9357 112.687 33.1215 112.192 33.493C111.697 33.8645 111.449 34.3598 111.449 35.0203C111.449 35.495 111.593 35.8665 111.882 36.1348C112.171 36.4238 112.584 36.6302 113.079 36.754C113.575 36.8985 114.277 37.043 115.205 37.2081C116.134 37.3732 116.939 37.6002 117.62 37.8686C118.281 38.1575 118.838 38.5497 119.271 39.0863C119.684 39.6229 119.911 40.3453 119.911 41.2122C119.911 42.079 119.684 42.8427 119.23 43.5032C118.776 44.1843 118.136 44.7209 117.331 45.0924C116.506 45.4639 115.597 45.6497 114.565 45.6497C113.41 45.6497 112.419 45.4433 111.552 45.0305C110.685 44.6177 110.004 44.0604 109.509 43.3174C109.013 42.5744 108.766 41.7282 108.766 40.7787L111.098 40.82Z" fill="white"/>
<defs>
<clipPath id="clip0_1968_34372">
<rect width="119.911" height="31.2444" fill="white" transform="translate(0 0.75)"/>
</clipPath>
<clipPath id="clip1_1968_34372">
<rect width="119.911" height="31.2444" fill="white" transform="translate(0 0.75)"/>
</clipPath>
</defs>
</svg>
